<svg xmlns="http://www.w3.org/2000/svg" width="32" height="32" viewBox="0 0 24 24" fill="none">
  <circle cx="12" cy="12" r="11" fill="#25D366"/>
  <path d="M12 3a9 9 0 0 0-9 9c0 1.56.4 3.02 1.1 4.29L3 21l4.86-1.27A9 9 0 1 0 12 3z" fill="#25D366"/>
  <path d="M8.1 7.8c.2-.5.4-.6.8-.6h.6c.2 0 .4.1.5.5l.4 1.1c.1.4 0 .6-.2.8l-.5.6c-.1.1-.1.2 0 .4.3.6.8 1.1 1.4 1.4.2.1.3.1.4 0l.7-.5c.2-.2.5-.2.8 0l1.1.4c.2.1.4.3.4.5v.6c0 .4-.2.6-.6.8-.5.2-1.2.2-2 0-1.8-.5-3.3-1.9-3.8-3.7-.2-.8-.2-1.5 0-2z" fill="#fff"/>
</svg>
